<?xml version="1.0" standalone="no"?>
<!DOCTYPE svg PUBLIC "-//W3C//DTD SVG 20010904//EN"
 "http://www.w3.org/TR/2001/REC-SVG-20010904/DTD/svg10.dtd">
<svg version="1.0" xmlns="http://www.w3.org/2000/svg"
 width="500.000000pt" height="500.000000pt" viewBox="0 0 500.000000 500.000000"
 preserveAspectRatio="xMidYMid meet">

<g transform="translate(0.000000,500.000000) scale(0.100000,-0.100000)"
fill="#000000" stroke="none">
<path d="M0 2500 l0 -2500 2500 0 2500 0 0 2500 0 2500 -2500 0 -2500 0 0
-2500z m2618 1346 c38 -20 81 -68 141 -158 28 -43 57 -78 63 -78 6 0 31 -9 54
-21 59 -28 84 -71 84 -144 0 -57 0 -58 68 -130 67 -72 132 -184 147 -253 3
-18 27 -56 51 -84 46 -54 54 -75 74 -191 11 -62 10 -75 -11 -149 -17 -62 -31
-90 -61 -121 -21 -22 -43 -55 -50 -73 -19 -54 -103 -160 -165 -209 -75 -59
-167 -106 -273 -140 -108 -34 -148 -52 -183 -81 -38 -32 -71 -30 -132 6 -27
16 -57 30 -66 30 -9 0 -33 14 -54 30 -21 17 -42 30 -47 30 -48 0 -248 110
-318 174 -19 18 -58 49 -87 70 -29 20 -66 54 -82 75 -59 74 -91 187 -77 266 9
48 59 102 106 115 51 14 60 47 25 98 -17 25 -25 50 -25 80 0 38 5 50 40 84 22
22 49 60 59 83 11 24 32 51 48 61 46 29 72 66 73 104 1 19 7 53 15 75 8 22 15
61 15 87 0 110 79 273 153 318 42 26 97 26 130 -1 30 -23 42 -62 52 -161 4
-38 11 -68 15 -68 4 0 19 -12 34 -27 14 -14 29 -23 33 -19 4 4 7 58 5 119 -2
136 9 175 58 199 42 22 53 22 88 4z m-866 -2063 c20 -18 24 -63 6 -81 -7 -7
-25 -12 -40 -12 l-28 0 0 -113 c0 -128 -11 -157 -60 -157 -53 0 -60 19 -60
151 l0 119 -29 0 c-34 0 -53 20 -53 57 0 44 25 53 141 53 83 0 108 -3 123 -17z
m389 7 c22 -12 27 -71 6 -88 -7 -6 -44 -12 -82 -14 -43 -2 -70 -8 -73 -15 -3
-10 13 -13 56 -13 66 0 92 -15 92 -54 0 -36 -20 -46 -87 -46 -49 0 -63 -3 -63
-15 0 -12 15 -15 73 -15 82 0 97 -9 97 -55 0 -17 -5 -36 -12 -43 -17 -17 -239
-17 -256 0 -8 8 -12 63 -12 180 0 148 2 168 18 177 23 14 218 14 243 1z m342
-2 c19 -14 137 -289 137 -318 0 -30 -29 -51 -64 -48 -24 2 -34 10 -46 35 -14
30 -18 33 -65 33 -47 0 -51 -3 -65 -33 -12 -25 -22 -33 -46 -35 -35 -3 -64 18
-64 48 0 19 110 268 136 308 16 24 51 29 77 10z m381 -42 l49 -55 39 49 c42
53 65 65 104 56 37 -10 44 -43 44 -194 0 -155 -9 -182 -60 -182 -48 0 -60 22
-60 107 l0 76 -23 -21 c-29 -28 -73 -29 -89 -2 -22 35 -28 22 -28 -58 0 -87
-8 -102 -55 -102 -52 0 -55 10 -55 184 0 134 3 162 17 178 30 33 63 23 117
-36z m613 39 c43 -30 54 -126 18 -155 -13 -10 -12 -16 5 -37 14 -18 20 -41 20
-75 0 -40 -5 -53 -26 -73 -25 -23 -35 -25 -126 -25 -97 0 -100 1 -129 29 -36
37 -40 94 -8 135 19 24 19 27 5 48 -9 13 -16 42 -16 68 1 79 32 99 150 100 60
0 92 -4 107 -15z m51 -632 c-3 -17 -61 -18 -1017 -21 -1005 -2 -1054 -1 -1035
29 3 5 445 9 1030 9 971 0 1025 -1 1022 -17z"/>
<path d="M2560 3755 c-10 -12 -11 -43 -4 -138 l10 -122 -29 -28 c-17 -15 -48
-32 -71 -37 -64 -15 -76 -13 -76 13 0 29 -29 57 -57 57 -19 0 -21 8 -27 93
-10 126 -13 137 -42 137 -61 0 -134 -154 -134 -285 0 -33 -4 -65 -9 -70 -17
-19 -21 -62 -7 -80 12 -17 9 -25 -36 -77 -28 -32 -59 -60 -70 -64 -10 -3 -29
-28 -42 -55 -13 -27 -38 -60 -55 -75 -38 -32 -39 -57 -3 -90 24 -23 27 -32 23
-77 -2 -31 -11 -61 -22 -76 -10 -13 -19 -30 -19 -37 0 -9 -11 -14 -30 -14 -40
0 -76 -25 -85 -57 -10 -40 13 -126 46 -177 17 -25 54 -62 82 -83 29 -20 72
-54 96 -75 67 -58 155 -108 244 -139 43 -15 89 -37 102 -49 15 -14 30 -20 42
-16 13 4 26 -1 39 -15 17 -18 65 -49 77 -49 3 0 8 11 11 25 4 14 11 23 16 20
5 -3 12 0 15 6 4 5 14 8 22 5 8 -3 24 0 36 8 12 8 38 17 57 21 102 19 252 95
324 163 52 50 110 140 126 196 7 25 16 43 20 41 29 -18 70 42 70 100 0 19 5
35 10 35 15 0 12 63 -5 103 -11 26 -12 36 -3 39 18 6 -33 88 -72 116 -17 13
-29 26 -27 29 10 9 -24 107 -60 176 -25 46 -58 88 -105 132 -73 67 -81 88 -63
157 10 37 -39 88 -84 88 -28 0 -36 8 -89 92 -57 93 -102 148 -120 148 -5 0
-15 -7 -22 -15z m268 -267 c17 -17 15 -43 -4 -59 -15 -12 -16 -11 -10 9 6 17
2 27 -16 42 -22 19 -22 19 -2 20 11 0 25 -5 32 -12z m-595 -97 c-40 -37 -73
-73 -73 -79 0 -18 -20 -14 -27 5 -11 28 19 64 87 104 36 20 70 37 75 38 6 0
-23 -30 -62 -68z m378 -17 c19 -9 52 -14 93 -12 71 2 99 -11 94 -46 -2 -17
-11 -22 -45 -24 -53 -4 -55 -17 -5 -33 20 -7 31 -14 24 -17 -10 -3 -10 -7 0
-19 8 -10 -1 -7 -22 6 -34 20 -92 27 -124 15 -23 -9 -19 -24 7 -25 16 0 11 -5
-21 -20 -43 -19 -50 -46 -9 -33 78 25 165 -22 212 -115 15 -29 55 -137 55
-147 0 -2 -15 5 -32 16 -41 25 -54 26 -29 1 10 -10 33 -46 51 -80 19 -34 52
-76 77 -97 33 -27 41 -39 33 -49 -8 -10 -6 -22 10 -47 46 -76 0 -165 -68 -129
-50 27 -114 53 -119 48 -13 -13 8 -37 49 -56 36 -16 39 -19 18 -20 -14 -1 -38
6 -53 14 -15 8 -25 9 -21 4 12 -19 88 -49 127 -49 35 0 37 -1 27 -21 -7 -11
-37 -46 -68 -77 -61 -60 -217 -152 -259 -152 -13 0 -23 -5 -23 -10 0 -10 -61
-7 -79 4 -5 3 -15 -16 -22 -44 -7 -27 -16 -50 -20 -50 -10 0 -41 45 -70 100
l-23 45 -7 -35 c-4 -19 -5 -39 -2 -45 2 -5 -3 -1 -11 9 -9 11 -16 28 -16 38 0
11 -7 18 -19 18 -14 0 -18 -5 -14 -20 5 -19 3 -19 -38 -6 -54 17 -137 54 -143
64 -2 4 24 8 57 9 66 1 161 32 199 63 l23 19 -33 1 c-18 0 -42 -5 -53 -11 -36
-19 -122 -27 -189 -18 -78 11 -188 64 -244 117 -48 46 -86 124 -86 178 0 48
14 64 55 63 23 -1 25 -3 8 -6 -31 -6 -29 -13 10 -44 100 -80 217 -104 435 -88
145 10 210 27 326 87 57 29 82 36 126 35 59 0 121 -25 154 -62 17 -19 46 -29
46 -16 0 3 -9 22 -19 43 -32 62 -115 112 -192 116 -34 2 -56 9 -72 24 -31 29
-75 44 -108 37 -30 -7 -79 -57 -79 -81 0 -19 -9 -18 -32 3 -27 24 -87 22 -107
-4 -16 -20 -16 -20 -53 -1 -34 18 -40 18 -66 6 -19 -10 -36 -12 -52 -6 -14 5
-35 5 -52 -1 -25 -9 -36 -6 -69 14 -21 14 -39 29 -39 33 0 4 28 6 63 4 79 -5
117 19 117 75 0 33 2 35 28 29 15 -3 52 -9 82 -12 33 -4 63 -14 77 -26 27 -25
87 -39 136 -31 81 12 144 84 127 144 -10 33 -2 37 84 41 63 4 71 23 16 38 -61
16 -140 2 -245 -45 -175 -78 -196 -82 -214 -37 -19 46 12 98 77 132 13 6 21
17 18 25 -3 8 0 16 7 19 7 2 5 5 -5 5 -29 2 -72 -19 -104 -50 -27 -27 -32 -28
-44 -14 -12 14 -15 14 -38 -1 -18 -12 -39 -15 -74 -12 -58 6 -70 -5 -29 -27
35 -18 92 -20 108 -4 9 9 12 -2 12 -42 l0 -54 -73 -17 c-121 -30 -199 -19
-226 32 -9 18 -5 28 29 67 23 25 41 54 41 65 0 11 15 27 35 39 19 11 44 36 55
55 48 77 178 161 314 203 83 26 102 26 110 4 18 -51 53 -93 77 -93 23 0 25 18
4 26 -8 4 -15 14 -15 25 0 10 -9 23 -20 29 -20 11 -27 40 -13 54 4 4 16 -5 26
-19 11 -14 32 -32 48 -41z m-639 -611 c19 -17 22 -43 12 -105 -7 -43 -20 -47
-58 -17 -30 24 -32 43 -10 99 18 44 28 48 56 23z m678 -18 c20 -21 30 -38 24
-43 -5 -5 -39 -25 -76 -45 l-68 -37 0 45 c0 112 54 148 120 80z m-586 -57 c8
-13 18 -40 21 -60 7 -35 5 -38 -16 -38 -13 0 -35 3 -48 7 -21 5 -23 10 -18 45
5 39 22 68 38 68 5 0 15 -10 23 -22z m246 -32 c32 -67 28 -76 -31 -76 l-51 0
4 56 c7 86 42 94 78 20z m112 42 c27 -23 61 -79 52 -88 -5 -5 -33 -12 -61 -16
l-53 -7 0 39 c0 37 22 84 39 84 4 0 14 -6 23 -12z m-246 -20 c4 -7 11 -32 14
-55 l7 -43 -39 0 c-37 0 -38 1 -38 36 0 59 34 97 56 62z"/>
<path d="M2440 1596 c0 -9 5 -16 10 -16 6 0 10 4 10 9 0 6 -4 13 -10 16 -5 3
-10 -1 -10 -9z"/>
<path d="M3331 1681 c-23 -15 -2 -31 40 -31 27 0 39 4 39 14 0 24 -51 35 -79
17z"/>
<path d="M3323 1548 c2 -8 20 -13 42 -13 22 0 40 5 43 13 2 8 -10 12 -43 12
-33 0 -45 -4 -42 -12z"/>
</g>
</svg>
