<?xml version="1.0" standalone="no"?>
<!DOCTYPE svg PUBLIC "-//W3C//DTD SVG 20010904//EN"
 "http://www.w3.org/TR/2001/REC-SVG-20010904/DTD/svg10.dtd">
<svg version="1.0" xmlns="http://www.w3.org/2000/svg"
 width="900.000000pt" height="300.000000pt" viewBox="0 0 900.000000 300.000000"
 preserveAspectRatio="xMidYMid meet">

<g transform="translate(0.000000,300.000000) scale(0.100000,-0.100000)"
fill="#000000" stroke="none">
<path d="M1870 2654 c-177 -20 -285 -51 -420 -120 -252 -130 -446 -362 -533
-639 -29 -93 -51 -225 -40 -236 5 -5 134 -61 287 -124 l278 -117 50 22 c27 11
72 24 99 27 l50 6 126 186 c121 177 128 189 135 250 27 225 257 389 476 342
211 -45 358 -252 324 -456 -20 -125 -87 -228 -190 -294 -48 -31 -144 -61 -194
-61 -19 0 -80 -39 -207 -130 l-180 -131 -7 -47 c-15 -112 -75 -196 -171 -244
-93 -45 -173 -45 -266 0 -73 36 -114 81 -151 163 l-23 53 -198 83 c-109 46
-199 82 -201 80 -7 -7 33 -111 71 -187 210 -417 662 -656 1109 -585 255 40
438 133 616 315 207 211 310 463 310 760 0 519 -356 960 -860 1064 -79 16
-231 27 -290 20z"/>
<path d="M2194 2101 c-58 -26 -106 -72 -134 -128 -20 -38 -25 -63 -25 -123 0
-88 27 -152 84 -202 60 -53 114 -71 195 -66 84 6 139 30 186 84 121 138 81
347 -82 428 -65 32 -161 35 -224 7z m208 -74 c21 -11 50 -38 65 -60 25 -35 28
-50 28 -117 0 -85 -20 -127 -79 -168 -131 -90 -317 9 -316 168 1 156 166 253
302 177z"/>
<path d="M3795 1971 c-53 -13 -104 -42 -136 -78 -40 -46 -49 -72 -49 -144 0
-112 54 -174 198 -224 181 -64 205 -83 188 -150 -16 -63 -151 -79 -283 -34
l-72 25 -20 -56 c-12 -32 -21 -64 -21 -72 0 -18 82 -52 169 -69 83 -16 194 -7
257 20 173 75 208 290 63 387 -26 17 -91 46 -145 65 -54 18 -112 43 -128 54
-53 36 -48 102 11 130 47 23 135 14 209 -19 l53 -25 31 56 c16 31 30 60 30 65
0 12 -74 47 -137 63 -59 16 -166 18 -218 6z"/>
<path d="M7732 1965 c-68 -30 -79 -130 -21 -179 70 -60 179 -12 179 79 0 83
-81 134 -158 100z m109 -34 c52 -52 26 -147 -41 -152 -48 -3 -61 1 -85 26 -54
53 -11 155 65 155 22 0 41 -9 61 -29z"/>
<path d="M7745 1871 c0 -27 4 -53 8 -57 4 -4 7 5 7 19 0 34 13 34 39 0 15 -21
20 -24 21 -11 0 9 -4 20 -10 23 -6 4 -5 13 2 24 18 29 3 51 -34 51 -33 0 -33
0 -33 -49z m50 19 c0 -8 -8 -16 -17 -18 -13 -2 -18 3 -18 18 0 15 5 20 18 18
9 -2 17 -10 17 -18z"/>
<path d="M4300 1896 l0 -74 98 2 c53 1 107 0 120 -2 l22 -4 0 -325 0 -324 81
3 82 3 1 325 1 325 118 -3 117 -3 0 75 0 76 -320 0 -320 0 0 -74z"/>
<path d="M5130 1580 c0 -214 -1 -393 -2 -397 -2 -5 118 -9 265 -11 l268 -2 -3
72 -3 73 -182 3 -183 2 0 90 0 89 158 3 157 3 0 70 0 70 -155 1 -155 0 0 90 0
89 170 1 c94 1 176 2 183 3 8 1 12 22 12 71 l0 70 -265 0 -265 0 0 -390z"/>
<path d="M6097 1963 c-3 -5 -68 -177 -145 -383 -77 -206 -143 -383 -147 -393
-7 -16 -1 -18 80 -15 l88 3 27 75 28 75 152 0 152 0 28 -75 27 -75 87 -3 c48
-2 86 1 86 6 0 9 -84 231 -243 647 l-54 140 -81 3 c-44 1 -83 -1 -85 -5z m139
-353 l53 -150 -109 0 -108 0 51 155 c28 85 54 152 56 149 3 -3 29 -72 57 -154z"/>
<path d="M6735 1958 c-2 -7 -3 -186 -2 -398 l2 -385 77 -3 78 -3 2 241 3 241
104 -226 104 -226 50 3 49 3 104 225 104 225 0 -242 0 -243 80 0 80 0 0 400 0
400 -78 0 -79 0 -123 -277 c-68 -153 -126 -282 -130 -286 -4 -4 -65 120 -137
275 l-130 283 -77 3 c-55 2 -78 -1 -81 -10z"/>
<path d="M1556 1382 c-3 -5 32 -24 76 -43 111 -47 143 -86 143 -173 0 -53 -4
-68 -28 -99 -58 -77 -134 -88 -252 -39 -38 16 -72 28 -74 26 -10 -8 46 -67 87
-91 38 -23 59 -28 113 -28 56 0 73 5 115 30 88 55 131 162 104 259 -16 57 -72
123 -124 147 -42 19 -150 26 -160 11z"/>
</g>
</svg>
